<?xml version="1.0" encoding="UTF-8"?><svg id="Layer_2" xmlns="http://www.w3.org/2000/svg" width="2235.99" height="2044.04" xmlns:xlink="http://www.w3.org/1999/xlink" viewBox="0 0 2235.99 2044.04"><defs><style>.cls-1{mask:url(#mask);}.cls-2{fill:#ebf5ff;}.cls-3{fill:#fff;}.cls-4{fill:#ffeeb9;}.cls-5{fill:#ffe7df;}.cls-6{fill:#f2aba0;}.cls-7{fill:#fbf4ff;}.cls-8{fill:#baddbc;}.cls-9{fill:#b8d4c6;}.cls-10{fill:#b6cbd1;}.cls-11{fill:#b3daf8;}.cls-12{fill:#cde7f9;}.cls-13{fill:#b2d9ff;}.cls-14{fill:#bde5b2;}.cls-15{fill:#c7dcb2;}.cls-16{fill:#9bafcf;}.cls-17{fill:#59acff;}.cls-18{stroke-width:3.93px;}.cls-18,.cls-19,.cls-20,.cls-21,.cls-22{fill:none;stroke:#000;stroke-linecap:round;stroke-linejoin:round;}.cls-19{stroke-width:4px;}.cls-20{stroke-width:2.8px;}.cls-21{stroke-width:4.41px;}.cls-22{stroke-width:3.71px;}</style><mask id="mask" x="181.88" y="481.15" width="1845.51" height="1260.35" maskUnits="userSpaceOnUse"><rect class="cls-3" x="217.59" y="481.15" width="1800" height="1200"/></mask></defs><g id="blob"><path id="blob-2" class="cls-3" d="M405.36,1724.12c-15.83-56.2-24.45-111.22-26.49-169.43-2.02-57.63,1.37-114.71,6.89-171.66,5.29-54.49,12.3-108.73,16.3-163.42,2.02-27.6,3.3-55.31,3.39-83.08,.02-7.46-.25-14.95-.2-22.41,0-.39,0-.71,0-1.02-.09-2.01-.18-4.02-.28-6.04-.77-14.81-1.95-29.62-3.65-44.39-3.04-26.52-8.46-52.2-14.51-78.17-.06-.1-1.84-7.2-3.03-10.8-2.3-6.93-4.78-13.8-7.42-20.61-4.92-12.68-10.45-25.13-16.61-37.25-1.91-3.76-3.94-7.43-5.91-11.16-.17-.32-.83-1.49-1.5-2.67-.69-1.12-1.36-2.21-1.56-2.51-1.72-2.61-3.41-5.23-5.16-7.83-8.12-12.04-16.88-23.6-26.12-34.75-8.58-10.35-17.56-20.34-26.83-30.04-2.17-2.27-7.36-7.42-7.86-7.96-4.81-4.64-9.61-9.28-14.5-13.83-85.38-79.55-177.15-149.45-233.2-256.3C-19.32,441.2-10.87,315.47,58.84,223.39,128.62,131.22,235.6,86.41,340.55,50.27,435.06,17.72,533.42-6.48,635.31,1.55c107.39,8.46,200.12,62.67,277.23,142.09,67.99,70.02,117.05,155.93,178.29,231.75,1.42,1.31,2.83,2.64,4.2,4.05-13.54-13.9,4.96,4.4,8.84,7.72,6.35,5.43,12.9,10.6,19.63,15.48,4.16,3.02,9.48,7.71,14.65,10.89,.29-.12,2,.47,5.58,2.4,3.63,1.96,7.29,3.85,10.98,5.67,14.84,7.29,30.08,13.09,45.61,18.27,3.79,.85,7.55,1.89,11.35,2.73,7.94,1.75,15.94,3.19,23.95,4.34,8.02,1.14,16.06,1.98,24.11,2.52,3.15,.21,6.3,.33,9.45,.48,.53-.03,1.12-.06,1.81-.1,15.23-.75,30.29-1.91,45.25-4.59,3.92-.7,7.82-1.47,11.7-2.33,.34-.08,2.45-.6,4.56-1.11,2.15-.64,4.64-1.37,5.5-1.65,3.76-1.25,7.49-2.58,11.2-3.99,11.18-4.25,21.96-9.31,32.44-15,78.77-54.38,166.79-91.85,266.65-89.11,64.8,1.78,128.96,23.09,184.85,59.91,61.47,40.49,103.09,103.98,122.25,175.67,19.1,71.47,10.2,146.91-2.5,217.11-6.24,34.49-13.39,68.74-17.6,103.69-2.07,17.15-3.51,34.43-3.92,51.8-.11,4.65,1,26.77-.23,11.76,.82,9.96,1.5,19.86,2.99,29.78,1.17,7.84,2.9,15.56,4.54,23.32,.34,1.59,.58,2.78,.77,3.74,.91,2.3,2.01,4.7,2.53,6.07,3.2,8.34,7.44,16.07,11.03,24.2,2.18,3.14,4.25,6.37,6.52,9.45,4.7,6.39,9.75,12.49,15.04,18.37,1.63,1.81,2.66,2.99,3.28,3.74,.58,.53,1.28,1.17,2.1,1.94,12.35,11.5,25.47,22.03,38.84,32.16,52.35,39.64,109.14,75.19,149.1,129.88,92.82,127.03,83.27,295.4,16.44,424.22-65.32,125.89-182.71,218.74-299.55,288.85-121.06,72.63-260.17,105.25-402.1,71.54-33.93-8.06-67.53-18.22-100.94-28.7-14.36-4.51-28.7-9.1-43.06-13.6-6.74-2.11-13.49-4.2-20.25-6.25-3.37-1.02-6.75-2.01-10.13-3.03-.87-.26-1.59-.48-2.22-.68-.33-.09-.64-.17-1.01-.27-28.51-7.72-57.2-14.51-86.3-18.23-7.64-.98-15.29-1.75-22.95-2.29-3.41-.24-6.81-.44-10.22-.58-1.08-.05-3.98-.04-5.9-.03-2.25,.08-4.37,.16-4.6,.17-3.43,.14-6.85,.33-10.27,.58-9.95,.72-19.84,1.95-29.65,3.58-7.83,1.3-15.61,2.87-23.33,4.64-3.61,.83-7.19,1.76-10.79,2.64-.18,.06-.32,.1-.51,.16-17.19,5.23-34.16,11.03-50.98,17.31-32.84,12.25-65.17,25.84-98.26,37.44-67.17,23.56-137.64,39.53-210.17,28.26-127.74-19.85-242.37-108.61-304.08-228.23-14.35-27.82-24.15-57.72-31.67-87.99ZM1125.97,599.02c.35,.13,.71,.26,1.06,.39,.96-.56,1.92-1.13,2.88-1.66-3.68-2.42-7.33-4.91-10.95-7.45,2.34,2.91,4.7,5.79,7.01,8.72Z"/></g><g id="Scene"><g class="cls-1"><g><g><path class="cls-4" d="M995.73,1006.51c-62.17-56.31-156.25,41.46-93.27,74.94,13.34,7.09,48.69,4.63,58.2-7.17-10.48,16.59-12.57,48.93-73.34,39.86-71.37-10.66-53.4-81.05-54.21-86.9-36.77,24.88-33.46,188.85,157.05,149.08,79.47-16.59,133.37-119.83,46.24-183.36-27.18-19.82-13.12-5.92-7.17,13.55,35.08,114.8-48.01,133.62-70.15,125.16,38.5-18.09,81.8-84.29,36.67-125.16Z"/><circle class="cls-3" cx="943.83" cy="1062.55" r="40.05"/><path class="cls-22" d="M913.8,1098.51c-43.01-14.09-39.32-81.88,20.37-77.04,48.05,3.89,52.8,89.8-17.84,77.72-.29-.31-.26-.33,.07-.07,32.8,32.19,122.3-10.1,84.83-73.03-34.47-57.89-147.45-43.84-148.24,41.27-.89,95.92,156.49,106.66,178.31,13.46,4.24-18.11,2.31-42.4-3.08-60.51,150.7,225.08-336.89,143.3-201.53-5.51,37.57-41.31,74.39-33.96,114.82-35.35"/></g><g><path class="cls-2" d="M834.88,1261.64c0-53.14,17.15-33.03,52.01-41.33-.68,12.42,1.69,26.86,5.14,38.11,2.11-23.82,1.29-37.34,3.59-52.74,13.96,3.87,37.08,2.22,52.38,3.57-.62,.49-1.33,1.82-.92,2.65-4.5-12.04-4.69-42.34-2.87-56.04,9.6,.22,56.91-14.58,59.69-5.8,4.45,14.09,.74,32.63,3.71,44.5,24.44-7.84,42.32,13.72,44.5-33.37,15.78,17.17,11.96,21.99,13.53,46.49,28-1.25,14.73-96.72,13.91-118.42-2.27-60.47,3.89-47.27,47.46-47.46,2-20.42-2.12-38.13,0-58.59,22.99,0,33.72,1.99,34.11-7.42,.74-17.8-1.48-40.05,.74-71.94,12.58,2.57,46.06,2.94,58.59,.74,.53,19.15-2.59,107.6,2.22,132,2.44,12.35,1.7,18.58,10.81,4.09,11.44-18.19-2.63-81.06,6.99-109.4,2.14,5.78,3.76,11.87,5,18.12,.66,3.32,7.15,2.97,7.61,6.36,4.99,36.67-.58,79.01,9.64,91.96,5.23-18.82,6.55-36.39,7.42-55.62,22.78-5.66,2.28,62.99,14.09,72.68,11.44,9.39,6.42-7.83,16.32-9.64,7.74-1.42,20.95,3.15,30.94,.33,1.71-11-2.09-26.55,.2-37.41,1.65,4.03,6.86-3.96,8.16,0,6.89,21.13,5.26,53.51,5.29,76.13,.09,71.39,55.2,11.98,73.75,36.9,3.28,4.4-.31,21.48,2.39,28.38,4.66,11.91,13.76,17.97,21.25,27.09,13.79,16.8,12.83,61.24,10.1,65.17-5.92,8.54-38.01,4.24-60.03,7.61-7.48,1.15-18.39,7.74-26.71,5.25-23.21-6.94-12.5-98.49-34.57-89.83-15.43,6.05-3.93,63.22-4.95,80.16-.08,.02-140.97,3.19-155.61-.3,.74-44.5,18.54-107.53-2.97-128.3-16.32,19.28-3.71,76.38-9.64,114.21-1.96,12.47-1.48,14.09-31.89,14.09-101.22,0-171.3,8.68-245.47,10.38-68.47,1.57-39.3-5.19-43.75-28.18"/><path class="cls-22" d="M1340.68,1103.05l-.65-88.11-15.37,1.08,.97,35.68-38.67-2.21,.81,28.97-7.56-23.73-.35-62.75-5.71-3.23-3.55-36.28-2.16,37s-3.05,1.1-5.27,1.08l-1.2,88.7-.45-33.07-6.93-14.01,.96-82.97-13.32-.18,1.53,11.64-.35-35.42-14.61-.56-.59,124.46-5-18.76-.88-133.49-24.59-.36,1.76-19.38-18.44,1.8-.26,16.72-36.56-.05,2.88,77.79-38.95-5.89v62.47l-39.43-3.14,1.92,122.97,25.48-98.61,33.66-1.18,32.76-21.3,3.55,86.35h17.13l-1.81-46.5,61.1,.56,12.3,16.15,5.06,50.02,5.04-42.85,23.72-1.79-.69,72.71,11.66-.94,3.51-59.93,40.8-.69,2.23,19.71,68.07-.72,1.66,61.62,26.45,16.5,5.77,58.93-47.93-.19-2.64-109.23h-75.54l2.2,111.38,22.84-1.79,2.64-78.01-66.75-1.08s-2.32,59.29-.63,62.05l-5.26-.13-2.34-100.58-44.47,.98-1.32,112.46-7.91,1.08,.88-112.82-11.41-13.21-16.69-.12,.76-4.71-11.75-.26-.44,5.38-21.08,.36-.7,124.51,20.68-76.22-84.15,1.18-1.44,27.5h-27.21l.33-44.83-24.47-1.48v21.51l-37.82,.74v-37.82l-80.83,2.22,4.45,106.05,59.33-1.48-.74-52.65-109.76-1.48,.74,60.07-45.98,2.22v-43.01l67.49,.74-2.22,43.01"/></g><g><path class="cls-3" d="M770.37,1333.54c-7.91-5.53-15.7-37.11-4.26-47.33,15.41-13.78,28.25,14.86,45.5,9.89,31.04-8.95,12.21-101.85,67.48-79.17,15.53,6.37,21.7,35.95,39.44,31.88,4.35-1,15.49-15.42,19.59-18.62,9.38-7.31,21.04-15.84,31.85-20.37,30-12.59,28.13,6.85,45.98,23.13,16.57,15.11,30.65-2.06,49.65-8.39,36.97-12.3,15.92,11.61,32.81,27.91,16.44,15.87,42.03-18.35,57.87-21.2,23.49-4.23,20.71,21.46,44.29,8.67,22.64-12.28,45.31-31,66.77-4.72,5.32,6.51,9.3,24.46,18.45,27.26,11.93,3.66,24.38-14.37,36.61-16.59,30.26-5.49,40.76,25.89,38.43,51.89-2.29,25.62-27.26,32.51-48.7,41.57-23.61,9.98-39.84,14.35-65,7.84-20.6-5.34-30.82-8.79-49.8,4.83-17.6,12.64-17.88,17.6-39.8,14.18-24.26-3.78-48.23-16.14-73.3-10.91-21.73,4.53-38.56,20.92-61.3,23.2-23.01,2.31-45.27-2.14-68.56,1.32-54.3,8.08-143.07,31.92-174.64-36.57-3.98-8.63-6.57-16.79-9.38-9.7Z"/><path class="cls-10" d="M770.07,1337.6c-7.91-5.53-15.7-37.11-4.26-47.33,15.41-13.78,28.25,14.86,45.5,9.89,31.04-8.95,12.21-101.85,67.48-79.17,15.53,6.37,21.7,35.95,39.44,31.88,4.35-1,15.49-15.42,19.59-18.62,9.38-7.31,21.04-15.84,31.85-20.37,30-12.59,28.13,6.85,45.98,23.13,16.57,15.11,30.65-2.06,49.65-8.39,36.97-12.3,15.92,11.61,32.81,27.91,16.44,15.87,42.03-18.35,57.87-21.2,23.49-4.23,20.71,21.46,44.29,8.67,22.64-12.28,45.31-31,66.77-4.72,5.32,6.51,9.3,24.46,18.45,27.26,11.93,3.66,24.38-14.37,36.61-16.59,30.26-5.49,40.76,25.89,38.43,51.89-2.29,25.62-27.26,32.51-48.7,41.57-23.61,9.98-39.84,14.35-65,7.84-20.6-5.34-30.82-8.79-49.8,4.83-17.6,12.64-17.88,17.6-39.8,14.18-24.26-3.78-48.23-16.14-73.3-10.91-21.73,4.53-38.56,20.92-61.3,23.2-23.01,2.31-45.27-2.14-68.56,1.32-54.3,8.08-143.07,31.92-174.64-36.57-3.98-8.63-6.57-16.79-9.38-9.7Z"/><path class="cls-3" d="M1013.46,1473.3c-23.35-.56-50.61,19.19-74.26,26.55-36.17,11.26-49.26-1.91-80.16-18.5-20.66-11.09-53.98-20.13-61.47-46.3-3.5-12.23,8.99-52.86,23.09-34.03-.06,1.53-.13,1.56-.19,.09,11.14-29.31,28.65-56.14,63.42-48.66,13.03,2.8,21.28,11.82,35.1,9.15,14.15-2.73,27.47-18.26,41.49-23.66,14.76-5.69,24.91-8.43,39.24,.9,12.15,7.91,14.68,22.36,31.82,16.25,11.84-4.22,17.41-22.33,28.74-28.38,12.33-6.59,18.7-2.27,31.03,1.68,18.21,5.82,23.21,4.25,41.02-2.53,21.37-8.13,22.6-.45,42.43,5.58,42.19,12.84,67.28-55.13,115.39-34.04,22.2,9.74,15.34,10.14,37.03-2.18,16.58-9.41,28.46-8.5,38.53,9.05,6.36,11.08,7.74,28.74,10.13,41.63,3.33,18.01,24.41,60.47,9.89,76.67-14.22,15.86-58.67-7.32-79.22-5.18-40.86,4.26-72.32,37.21-112.43,41.46-22.26,2.36-38.08-9.78-59.09-12.83-20.31-2.95-33.76,5.28-51.44,13.29-31.54,14.29-61.65-2.12-70.09,13.99Z"/><path class="cls-9" d="M1008.43,1484.49c-23.35-.56-50.61,19.19-74.26,26.55-36.17,11.26-49.26-1.91-80.16-18.5-20.66-11.09-53.98-20.13-61.47-46.3-3.5-12.23,8.99-52.86,23.09-34.03-.06,1.53-.13,1.56-.19,.09,11.14-29.31,28.65-56.14,63.42-48.66,13.03,2.8,21.28,11.82,35.1,9.15,14.15-2.73,27.47-18.26,41.49-23.66,14.76-5.69,24.91-8.43,39.24,.9,12.15,7.91,14.68,22.36,31.82,16.25,11.84-4.22,17.41-22.33,28.74-28.38,12.33-6.59,18.7-2.27,31.03,1.68,18.21,5.82,23.21,4.25,41.02-2.53,21.37-8.13,22.6-.45,42.43,5.58,42.19,12.84,67.28-55.13,115.39-34.04,22.2,9.74,15.34,10.14,37.03-2.18,16.58-9.41,28.46-8.5,38.53,9.05,6.36,11.08,7.74,28.74,10.13,41.63,3.33,18.01,24.41,60.47,9.89,76.67-14.22,15.86-58.67-7.32-79.22-5.18-40.86,4.26-72.32,37.21-112.43,41.46-22.26,2.36-38.08-9.78-59.09-12.83-20.31-2.95-33.76,5.28-51.44,13.29-31.54,14.29-61.65-2.12-70.09,13.99Z"/><path class="cls-3" d="M990.08,1684.65c-33.87-2.08-75.34-1.55-109.6-20.58-41.48-23.03-103.32-68.8-112.09-120.77-9.51-56.32,41.97-71.78,83.83-69.9,15.68,.7,31.51,7.54,45.38-.87,15.3-9.28,24.81-34.56,37.88-47.05,16.3-15.58,37.32-20.37,58.45-13.18,19.87,6.77,27.79,32.19,46.76,36.44,45.12,10.1,59.88-82.57,113.12-39.86,23.71,19.02,24.37,22.99,53.48,6.04,24.06-14.01,42.64-25.24,67.77-9.5,30.02,18.8,42.4,26.81,78.87,27.17,31.06,.31,37.9,15.78,37.39,47.89-1.52,95.59-70.45,168.59-162.51,184.13-25.18,4.25-50.67,.13-75.83,4.4-26.36,4.47-52,13.78-78.62,15.68-17.45,1.25-35.36-.35-52.57-1.94-24.2-2.23-34.27,1.15-31.71,1.9Z"/><path class="cls-8" d="M996.97,1695.84c-224.92-13.78-295.15-218.31-137.87-211.25,15.68,.7,31.51,7.54,45.38-.87,15.3-9.28,24.81-34.56,37.88-47.05,16.3-15.58,37.32-20.37,58.45-13.18,19.87,6.77,27.79,32.19,46.76,36.44,45.12,10.1,59.88-82.57,113.12-39.86,23.71,19.02,24.37,22.99,53.48,6.04,24.06-14.01,42.64-25.24,67.77-9.5,30.02,18.8,42.4,26.81,78.87,27.17,31.06,.31,37.9,15.78,37.39,47.89-3.23,202.53-238.25,188.51-238.34,188.52-26.36,4.47-52,13.78-78.62,15.68-11.78,.84-44.38,6.64-84.28-.04Z"/><path class="cls-3" d="M1133.55,1690.76c-29.85-11.65-37.95-36.01-36.15-62.71,2.26-33.61,25.82-32.29,53.58-41.64,35.35-11.9,10.64-43.19,26.53-68.64,12.79-20.48,48.04-9.18,69.86-18.11,34.79-14.24,65.32-54.94,107.17-42,46.86,14.48,54.65,43.88,52.68,84.39-1.59,32.6,4.33,64.99,7.79,96.98,3.55,32.8,17.5,51.83-22.53,55.09-32.05,2.61-228.5,8.52-258.95-3.36Z"/><path class="cls-14" d="M1147,1690.76c-27.63-18.97-32.74-31.04-30.85-58.17,2.38-34.14,27.13-32.8,56.29-42.3,37.14-12.09,11.18-43.88,27.87-69.73,13.43-20.81,50.47-9.33,73.39-18.39,36.55-14.46,68.62-55.81,112.59-42.67,49.22,14.71,57.41,44.58,55.34,85.74-1.67,33.12,4.55,66.03,8.19,98.52,3.73,33.32,9.9,66.38-32.15,69.69-33.66,2.65-236.07,1.06-270.66-22.69Z"/><path class="cls-3" d="M618.77,1701.83c-9.27-23.24,21.72-44.37,41.06-50.93,20.96-7.11,48.52-3.01,65.76-20.54,16.86-17.13,11.01-45.28,18.88-66.34,11.54-30.9,47.08-47.78,77.95-50.39,38.87-3.28,38.33,22.55,43.91,52.16,6.42,34.09,47.79,14.48,74.09,29.82,32.31,18.84,31.76,55.64,10.72,83.56-34.55,45.84-91.4,50.9-143.27,57.71-32.21,4.23-66.34,5.33-98.92,4.19-26.13-.91-78.16-9.12-90.18-39.24Z"/><path class="cls-15" d="M635.02,1713.88c-10.22-22.84,21.72-44.37,41.06-50.93,20.96-7.11,48.52-3.01,65.76-20.54,16.86-17.13,11.01-45.28,18.88-66.34,11.54-30.9,47.08-47.78,77.95-50.39,38.87-3.28,38.33,22.55,43.91,52.16,6.42,34.09,47.79,14.48,74.09,29.82,32.31,18.84,31.76,55.64,10.72,83.56-34.55,45.84-325.49,38.04-332.37,22.66Z"/><path class="cls-22" d="M780.36,1531.82c-6.15-3.1,38.7-36.69,72.62-25.97,37.87,11.97,7.43,50.39,24.76,55.98,11.67,3.76,25.33-3.18,38.03,1.64,28.34,10.76,46.27,59.67,13.19,80.99-16.72,10.78-21.04,15.09-57.56,22.19"/><path class="cls-19" d="M836.07,1316.01c-37.09-60.62,79.59-115.87,95.04-42.87,19.21-61.5,133.47-44.73,128.39-2.91,7.7-11.67,31.37-15.99,45.52-15.73,24.91,.46,25.57,13.6,30.28,30.58,17.24-20.33,36.09-33.44,62.61-27.37,22.82,5.23,6.3,31.55,25.4,27.37,11.11-2.44,24.82-15.97,36.6-20.02,59.73-20.52,83.61,38.88,84.21,60.27-17.75-21.23-45.82-14.4-53.39,10.53-34.94-19.94-67.41-19.67-88.5,17.48-40.99-61.04-78.32-18.19-78.4,3.96-40.13-50.84-117.78-48.77-122.64,26.35-31.55-31.97-110.15-56.71-125.73,1.4-36.87-29.13-114.47,21.49-87.93,56.76,29.97,39.83,67.42-40.97,111.66,34.91,37.98-102.01,188.4-74.67,169.75-9.06,1.78-49.1,106.82-121.12,123.73-22.43,24.76-15.65,39.84-46.88,79.18-46.29,52.61,.79,16.32,70.11,116.42,69.18-48.42-46.72-90.09,13.81-102.37,15.22-4.48,.52-18.91-7.63-23.73-9.11-53.27-16.39-95.21,23.02-70.54,79.31-30.79-17.46-82.5-2.02-91.27,34.75-4.6,19.28-26.49,91.02,64.46,78.36"/></g><g><g><path class="cls-5" d="M1446.6,1133.95c.81-.85,2.05-4.2,.31-4.81-1.56-.55-3.48,2.63-4.27,3.59-3.05,3.7-5.74,8.3-7.55,12.79-1,2.48-4.73,6.98-4.94,9.44-.11,1.22,1.14,2.76,1.59,4.27,.54,1.81,.52,3.69,.54,5.63,.03,3.19-.93,9.42,.76,12.03,2.62,4.07,11.35,.19,15.58,2.31,6.66,3.34,10.05,8.67,18.08,9.72,7.75,1.01,22.26-2.71,19.81-12.81-1.34-5.52-6.99-10.43-10.52-14.63-4.74-5.62-9.99-10.95-15.22-16.12-2.4-2.37-14.54-10.79-14.17-11.43Z"/><path class="cls-5" d="M1439.9,1243.91c-8.79-.73-10.77-19.08-12.56-25.36-1.3-4.54-3.19-9.5-2.73-14.17,.48-4.94,3.7-10.59,6.77-14.37s7.54-7.08,12.8-4.96c2.63,1.06,6.78,5.12,5.48,8.12-1.7,3.94-9.3,4.47-12.18,7.63-4.92,5.41-.76,12.71,1.93,18.34,3.02,6.32,8.99,13.88,9.94,20.87,1.2,8.78-8.06,3.39-9.45,3.89Z"/><path class="cls-5" d="M1420.86,1278.03c-2.79,.92-3.64,7.53-5.94,10.23-3.61,4.24-8.14,3.29-11.81-.48-3.54-3.64-4.54-11.89-4.34-16.67,.28-6.83,7.23-8.62,12.27-4.94,4.67,3.41,8.38,6.61,9.82,11.86Z"/><path class="cls-5" d="M1501.43,1376.41c-4.78,1.34-9.91,8.33-12.61,12.17-3.81,5.42-6.99,11.22-9.45,17.39-4.38,10.97-6.73,24.21-5.05,35.91,1.74,12.11,8.72,22.85,13.1,34.12,4.89,12.61,7.81,25.82,11.76,38.72,3.91,12.77,6.95,25.63,8.37,38.86,.32,2.96,1.64,10.31,4.39,4.38,3.1-6.69-.12-15.08,4.4-21.48,4.34-6.15,20.9-10.65,9.98-19.44-5.22-4.2-12.28-6.79-14.17-14-2.3-8.79-.48-19.95,.27-28.86,.83-9.87,.29-18.84-2.69-28.33-3.17-10.07-3.47-17.57,3.35-26.36,7.04-9.07,16.49-16.65,21.8-26.97,5.11-9.92,.61-19.81-10.55-21.92-9.43-1.79-17.97,1.56-22.91,5.81Z"/><path class="cls-5" d="M1533.41,1385.86c-27.08,27.78,2.07,105.28,1.83,130.38-.4,41.11-47.45,53.28,18.55,43.62,11.19-1.64-.7-4.76-2.17-34.14-.65-13.09,6.47-58.16,7.37-71.72,.66-9.93-2.92-20.64-.92-30.28,2.05-9.91,7.08-20.67,4.22-30.96-3.53-12.7-19.45-11.42-28.88-6.9Z"/><path class="cls-6" d="M1473.71,1108.97c-8.13-3.86-38.78-1.85-34.04,12.11,2.01,5.91,9.41,8.76,14.08,12.15,5.22,3.78-.17,6.72-1.44,11.35-1.53,5.6,1.3,12.75,6.15,15.86,5.92,3.79,14.46,2.15,18.98,8,3.18,4.12,1.36,13.31,8.07,12.75,3.34-.28,7.34-2.9,10.81-1.49s1.56,5.53,4.34,7.39c3.83,2.56,10.35-2.57,14.95-.98,8,2.76,5.63,12.6,5.94,19.08,.38,8.05,3.98,13.88,12.3,15.06,6.39,.91,14.28-3.17,20.16-.37-9.61-2.36-14.3-10.13-11.63-19.78,1.43-5.16,3.38-10.38,.49-15.43-2.08-3.63-6.78-5.94-7.53-10.22-.45-2.52,.72-5.53,1.09-8.06,.56-3.75,.81-7.52,.64-11.32-.29-6.62-2.97-14.29-9.35-17.33-5.49-2.61-11.99-.68-17.74-2.09-6.96-1.71-5.65-6.44-6.49-12.28-.9-6.24-3.74-12.48-9.91-14.86-3.51-1.36-7.33-1.38-11.05-1.35-7.17,.05-11.54,2.89-17.97,5.79"/></g><path class="cls-6" d="M1368.39,1248.02c-1.99,8.36-.8,17.68,.67,26.74,1.31,8.1-.62,18.9,10.3,18.52s17.38-.48,19.19-11.69c1.23-7.63,3.07-18.59,.69-26.04-4.36-13.66-23.55-9.12-30.84-7.54Z"/><path class="cls-7" d="M1456.34,1300.57c-2.2-2.38-4.43-5.11-6.58-8.09-1.64-2.26-38.7,8.26-30.76-9.39,1.2-2.67,23.12-2.93,21.84-5.6-4.66-9.79-7.48-20.38-6.16-29.68,16.07-3.53,15.94,29.71,24.01,8.82,4.17-10.8-2.41-34.22-.88-45.87,5.12-39.12,38.54-19.46,62.5-3.85,27.45,17.88,49.62,42.93,60.76,73.92,8.8,24.47,13.74,66.7,12.34,92.84-1.53,28.5-13.22,27.1-34.17,24.09-21-3.02-53.67-5.75-74.09-7.06,3.34-26.16,24.44-61.6,22.36-89.78-1.24-16.81-13.47-47.72-27.66-58.41-3.53,24.7,4.18,56.54-23.52,58.05Z"/><path class="cls-21" d="M1441.69,1294.63c-1.05-3.28-39.3,4.57-38.57-2.86,.33-3.35-6.32-3.07-8.04-3.53-3.61-.97-1.67,3.6-5.48,4.57-3.4,.87-19.48,.5-22.85,0-1.73-.26-2.18-2.05-2.52-3.66-1.14-5.48-2.98-32.96-2.05-35.64,10.05-.91,33.82,0,33.82,0,0,0-.43,23.64-1.83,29.25-.91,3.66,17.37-2.74,11.88-21.02-1.83-3.66-3.74-3.57-5.48-2.74-1.58,.76-2.39,3.06-.91,3.66,4.57,1.83,6.52-1.71,10.05,.91,7.41,5.51-6.26,3.97-5.48,8.23,.7,3.84,7.08-.05,4.57,6.4-.04,.09-10.69,2.89-4.57,2.74,18.26-.43,1.83-11.88,21.93-6.4,.24,.02,12.34,1.37,6.85-3.2-2.32-6.97-6.87-14.84-5.81-21.58,6.04-1.35,9.09-2.74,14.49-5.38-3.91,.07-7.43,1.42-10.97,0-2.1-9.55-10.97-34.73-6.4-48.44,.57-1.7,5.48-8.87,9.14-11.88,4.02-3.31,6.66-4.04,12.8,1.83,13.46,12.87-17.83,12.68-9.14,10.97,6.05-1.19,11.2,1.67,5.48,3.66-1.75,.61-5.29,5.43-9.14,4.57-7.05-1.57,24.68,53.01,23.76,61.23-.6,.19-5.81-19.74-6.4-24.68-9.14-43.87,6.4-56.66,21.93-54.84-18.28,10.05-21.59-2.16-25.59-6.4-6.21,.56-21.93,2.74-19.19-2.74-.8-5.61,3.97-9.92-2.49-16.3-1.01-1-.87-2.69,.33-3.43,2.61-1.6,7.81-8.53,7.64-11.34-.91-15.54,9.14-17.37,9.14-17.37,0,0-4.32,4.48-2.74,8.48,4.57,11.63,14.01,3.45,13.71,4.32-5.26,15.2-9.72,22.53,8.23,27.42,31.16,8.49,21.13,15.29,21.28,18.49,4.32-4.78,24.02-14.32,7.06-26.72-5.04-3.68-13.88-4.14-14.11-11.02-.52-15.48-4.62-27.07-21.54-25.53-10.05,.91-14.39,5.65-22.99,2.68-23.62-8.16,59.27-39.94,67.78,2.81,6,30.12,36.28-4.67,31.99,40.21-2.87,29.97,14.62,18.28,1.83,37.47-6.19,9.28,3.66,10.97,10.97,11.88-8.98,1.84-25.47,18.09-28.33-21.93-.91-12.8-16.45-8.23-21.93-10.05,6.4,3.66,16.21,6.82,48.18,56.54,16.23,25.25,42.94,64.57,43.21,139.96,.09,24.59-33.27,12.54-33.43,18.42-.41,15.4-.39,7.17-3.13,22.71-3.36,19.04,10.97,39.3-.91,85.91-8.07,31.65,17.37,46.61,0,47.53-.44-1.13-27.8,1.23-29.25,2.74l-1.83-10.97s4.57-.91,8.23-4.57c3.66-3.66,5.48-18.28,4.57-28.33s-1.83-42.96-4.57-57.58c-1.23-6.54-5.1-14.58-5.48-21.93-2.74-52.1,3.07-32.87,1.5-30.21-21.02,35.64-26.45,18.06-20.7,23.82,10.97,10.97,10.85,38.71,10.05,46.61-1.4,13.92-3.39,24.23,1.83,36.56,2.58,6.1,9.54,2.7,14.62,6.4,12.66,9.21-17.34,8.36-12.25,35.96,.58,3.12-1.19,6.19-4.21,7.18-4.57,1.5-10.42,2.94-10.97,.74-.91-3.66,3.66-3.66,6.4-6.4-2.74-8.23-5.7-13.22-8.23-22.85-2.93-11.14-2.74-26.87-6.72-37.28-7.42-19.4-13.47-38.05-19.38-53.89-5.88-15.76-1.31-20.33,16.96-48.66,7.03-10.9,17.31-3.98,48.98-3.72,9.71,.08,9.8,1.09,19.57-1.76,11.41-3.33-18.47-9.8-24.5-10.91-55.12-10.18-70.55,21.88-54.1-14.68,6.17-13.7,23.41-63.34,14.62-79.51-8.46-15.56-27.51-5.79-19.19-56.66,4.28,19.08,4.83,32.67-.91,50.27-3.07,9.39-4.48,22.77-18.28,20.11-14.83-2.86-10.05-.91-14.62-14.62l1.83,10.05Z"/></g><g><path class="cls-11" d="M1593.15,823.59c.51-59.03,39.14-21.53,99.37-33.43-3.2-16.3,9.1-4.9-1.97-49.79,49.1,10.55,32.95-38.39,40.74-68.65,9.17,5.14,20.97,6.28,31.36,5.94,2.64,8.75-.91,26.13,4.8,30.57,10.39,8.07,22.8,1.07,23.28-7.39,20.41-.56-5.13,38.67,22.39,43.35,18.42,3.13,39.51-4.93,56.56,1.85,22.24,8.85-28.71,45.14,58.12,42.02,97.34-3.5,99-35.96,97.84,363.93-.88,302.77,2.78,485.26,1.44,530.15-60.92,9.43-352,7-432-3-1.46-.18-6.18-362.5-1.93-855.55Z"/><path class="cls-4" d="M1658.68,959.56c-2.66,32.25-3.28,62.82-3.28,95.99,0,92.16,.34,90.42,3.21,108.21,36.25,1.84,71.62,3.39,106.89,2.9,9.64-86.6-.1-163.01,1.24-174.83,4.2-37.11-27.33-30.53-65.82-30.11-9.81,.11-40.8-.99-42.24-2.16Z"/><path class="cls-4" d="M1671.09,1364.21c-2.57,31.17-3.17,60.72-3.17,92.78,0,89.07,.32,87.39,3.1,104.59,35.03,1.78,69.23,3.28,103.32,2.8,9.32-83.7-.09-157.56,1.2-168.98,4.06-35.87-26.42-29.51-63.62-29.1-9.48,.1-39.43-.96-40.83-2.09Z"/><path class="cls-4" d="M1866.18,964.52c11.8,45.25-16.11,207.98,18.91,201.67,15.88-2.86,7.35,.96,96.5-3.37,9.12-21.49,1.73-53.34,1.7-76.11-.1-103.08,24.16-121.12-12.95-124.02-66.34-5.18-81.75-.28-104.16,1.82Z"/><path class="cls-4" d="M1866.18,1365.77c11.01,42.23-15.03,194.08,17.64,188.2,14.81-2.67,6.86,.89,90.05-3.14,8.51-20.06,1.61-49.78,1.59-71.03-.09-96.2,22.55-113.02-12.09-115.73-61.91-4.83-76.29-.26-97.2,1.7Z"/><path class="cls-21" d="M1573.21,1675.58l-2.07-109.31-127.47,.94-3.88-266.38,123.45-2.43,8.77,257.39-117.98-245.1,117.98-2.64-4.82-524.78,244.87-4.61-125-4.61v-45.2c9.8-.22,8.36-.75,18.28-1.04,0,0,6.39-124.66,5.29-139.26-6.17,4.68-8.42,6.64-14.07,11.9,10.42-8.76,23.04-26.72,34.56-34.04-8.51,5.46-17.34,13.4-28.69,11.99-8.43-1.04-23.13-6.69-31.04-3.82,5.04-5.08,16.46-12.77,21.54-19.59-12.63,9.5-30.93,27.21-42.76,37.25,4.45-5.7,18.29-16.63,20.45-23.05-17.37-.87-30.7-11.09-39.92-1.86,9.22-9.22,33.81-31.36,33.81-31.36,0,0-45.08,41.82-58.4,53.5,10.76-7.34,23.29-28.87,37.91-27.67,7.65,.63,85.07,17.08,97.27,18.78,13.41,1.87,14.49-5.02,25.7-11.56-9.05,10.89-17.06,22.38-26.37,33.1,9.66-9,16.76-17.98,15.04-11.29,5.79,2.15,26.72,2.76,33.85,1.41,.7-1.55,13.34-13.17,13.32-14.76-10.5,.96-22.29,22.11-28.09,29.15,1.9-2.76,7.71-11.82,8.34-17.4-4.5,.87-66.82-12.54-67.33-5.3-2.05,28.6-.97,143.82-.97,143.82,3.76-.11,9.59,.46,13.27,.18,0-5.51-.89-58.17,.09-58.25l40.12-3.37,1.8,27.49,24.59,1.84,1.96,35.41,67.71,1.49,1.02,45.2,144.46-6.46-3.07,446.49-149.59-.92,1.02-261.07h114.75l2.05,203.87-327.86,6.46v-212.17l111.68,.92,6.15,263.83-116.8-2.77,5.5,343.25s78.05,.85,112.02,0l-5.59-201.26-102.71-.85,5.12,180.81,191.59,.92,.68,23.91,113.79,.88,1.31-207.44-120.9-2.77,3.07,169.74,160.86,4.61s-4.25,103.65-7.79,144.41"/></g><g><path class="cls-12" d="M409.87,635.5c27.28-.58,56.16-1.88,90.18,.97,18.73,1.57-1.29-27.17,16.48-25.21,22.92,2.52,74.81,1.6,92.12,3.88,5.93,.78,.12-49.72,6.79-50.42,1.65-.17,9.23-13.69,11.64-9.7,2.41,3.99,10.88,16.65,13.58,22.3,6.2,13.03,1.29,35.98,4.85,35.88,7.93-.22,24.86-2.26,30.06,1.94,4.55,3.67,1.1,12.42,1.94,22.3,2.31,27.17,5.23,66.59,4.85,90.18-.09,5.51-72.89,6.43-72.73,10.67,.09,2.4,68.35,4.53,68.82,9.42,1.4,14.68,3.56,36.81,1,43.91-14.84-4.19-23.22-2.7-37.82-1.94,15.38,100.33,2.86,819.23,1.45,889.46-42.91-.6-339,0-404,2-10.05-27.81,1.19-510.68,1.07-523.73-5.79-595.61-79.49-512.22,169.72-521.92Z"/><path class="cls-4" d="M483.61,1238.77c.5,42.1,15.55,44.39,35.3,45.98,27.25,2.19,66.9,2.27,89.8-4.38-3.72-67.87,5.25-110.72-6.19-129.17-10.8-17.42-29.75-4.38-42.73-4.38-75.24,0-77.69-36.79-76.18,91.95Z"/><path class="cls-4" d="M473.87,847.82c-1.09-1.65-.6,123.71,0,129.6,71.49-6.72,114.42,13.46,113.82-7.81-.53-18.67-5.7-104.76-7.72-115.27-3.44-17.81-.88-15.5-12.81-17.88-27.48-5.48-56.05-.75-93.29,11.35Z"/><path class="cls-21" d="M223.09,1633.15c-6.84-1.42,1-818,1-818l281.3-4.85-288.3-8.15c-.76-16.05-2-35-2-35l335.23-10.58s-299.56,.44-331.13,1.89c-36.65,1.68-33.2,3.15-33.21-47.13,0-53.61-1.9-80.94-1.9-80.94l304.7-2.01-1.95-25.45,117.21,2.83v-31.11l42-2.83-24.42-22.62-28.33,23.56,40.05,4.71v29.22l67.4,.94,3.9,40.1-148.49-1.68,125.06,4,4.88,91.43-77.17,6.6h75.21l-1.95,47.13-139.68,5.66,112.33,3.77,4.66,281.3c-56.1,.63-283.84,2.86-283.84,2.86l-.3-158.89,90.88-5.71,.99-90.13,114.43-2.3,3.78,142.42-91.47-42.13,256.7,.71-.89,166.74h-90.88l-2.03,404.11-266.39,.88-7.06-207.29,88.11-1.68,2.74-163.27,132.31-4.41-2.65,233.75-83.43-68.93,234.26,.13,1.76,224.05-104.97,.88s3.95,109.02-1.5,155.42"/></g><g><g><g><path class="cls-5" d="M686.19,1149.21c.95-1.75-1.21-3.32-2.7-3.54-1.96-.3-3.84,.96-5.11,2.25-3.22,3.24-3.93,7-4.93,11.09-2.21,8.99-1.65,18.02,4.38,26.04,1.61,2.14,5.2,5.76,8.15,4.66,4.11-1.53,3.26-7.61,4.77-10.77,1.23-2.56,3.2-4.31,6.03-3.44,2.44,.75,3.83,3.12,5.98,.68,4-4.53-1.51-13.08,3.12-16.98,1.94-1.63,3.62-1.45,4.67-4.08,1.14-2.85,.06-4.25-.73-6.92-1.46-4.96,2.54-14.94-4.53-17.17-12.44-3.93-20.35,10.7-25.61,19.01"/><path class="cls-5" d="M733.16,1169.03c-2.86-2.15-4.74-10.41-2.12-13.11,4.57-4.7,12.23,1.31,14.95,5.17,2.96,4.2,.83,7.89,.74,12.49s2.28,9.12,3,13.78c1.4,9.06,.79,18.41,1.95,27.54,.9,7.05,3.09,17.04-3.86,21.52-7.58,4.9-20.83,1.49-28.42-1.81-4.53-1.97-9.56-3.7-9.88-9.32-.29-5.02,2.74-7.76,7.68-7.13,4.23,.54,9.35,5.68,13.45,3.02,4.87-3.17,7.19-13.89,6.6-19.12-.68-6.02-4.79-10.81-8.37-15.38-2.15-2.74-8.37-5.5-9-8.92,4.79-.89,14.01,9.21,17.35,1.05,.91-2.24,.62-5.03-.61-7.06s-4.69-2.78-3.47-2.72Z"/><path class="cls-5" d="M637.85,1213.29c-.12-.25-.47-.26-.23-.77,5.1-.41,14.29,2.12,16.21,7.58,1.55,4.4-1.23,8.69-3.28,12.41-3.55,6.44-4.29,11.12-1.56,18.27,3.57,9.33,9.76,16.77,16.55,23.93s14.22,11.38,23.79,13.05c1.91,.33,6.6,.88,6.64,3.46,.06,3.47-4.78,1.97-6.26,3.48-3.01,3.07,7.33,9.66,.01,13.72-3.38,1.88-10.54-.05-12.99-2.72-2.29-2.49-2.93-6.55-4.51-9.52-1.7-3.2-3.92-6.33-6.66-8.69-6.31-5.43-13.51-9.63-19.8-15.12-3.48-3.04-6.81-5.98-9.82-9.52-2.28-2.68-5.33-5.4-7.05-8.47-3.74-6.67-1.28-15.86,.4-22.81,1.05-4.34,2.85-8.84,4.82-12.84,2.24-4.55,5.75-6.97,9.17-10.59"/><path class="cls-5" d="M684.83,1488.08c-.27-.11-.59-.29-.79-.42,5.68,.88,13.36-1.69,18.24,2.05,2.66,2.04,5.86,8.48,4.83,11.95-1.44,4.82-10.81,7.47-15.17,8.61-4.9,1.29-15.76,4.74-15.52-3.45,.13-4.21,2.78-8.31,4.68-11.96,1.55-2.96,2.77-6.79,3.73-6.79Z"/><path class="cls-5" d="M644.37,1415.85c-3.9,1.72-8.24-1.69-9.38-5.53-1.53-5.14,.86-11.38,5.03-14.56,3.58-2.73,9.51-2.61,12.9,.67,2.4,2.32,6.01,8.92,6.12,12.38,.09,2.59-1.48,3.6-3.89,4.28-4.62,1.29-9.62,2.11-10.79,2.77Z"/></g><g><path class="cls-6" d="M670.71,1181.12c-.59-7.51-10.12,4.1-11.91,5.75-5.01,4.6-10.82,8.37-13.91,14.88-7.26,15.3,14,8.45,17.6,18.16,4.1,11.04-9.76,23.28-5.36,35.74,3.65,10.34,17.82,22.73,27.64,27.34,3.81,1.79,13.61-.13,15.25,3.51,2.61,5.81-7.24,6.5-7.95,10.41-.4,2.21,3.65,5.22,3.09,7.93-.5,2.42-3.11,4.38-5.51,5.38-8.89,3.68-16.07-2.98-21.67-8.97-4.91-5.26-14.49-19.3-18.5-6.38-5.06,16.28,13.96,19.83,25.5,21.75s24.19,3.97,31.35-6.84c6-9.05-1.92-22.73-4.49-31.97-3.21-11.53-4.48-24.61-2.31-36.47,.67-3.69,2.49-13.07,5.99-15.01,2.92-1.62,3.92,1.44,7.91-2.09,10.54-9.32,4.92-14.81-3.64-20.65-8.9-6.07-16.55-14.12-26.3-19.11-2.65-1.35-5.72-3.14-8.5-4.13-6.52-2.34-10.37,1.36-17.13,1.39"/><path class="cls-16" d="M678.04,1119.41c-9.28-1-14.85,16.91-16.02,23.96-1.01,6.1-3.17,27.85,7.94,18.67,4.14-3.42,6.1-9.14,9.3-13.3,3.63-4.72,5.07-3.8,10.38-4.89,6.53-1.34,26.14-4.97,27.37-13.44,.79-5.42-6.51-8.89-10.86-10.4-12.65-4.39-25.44-1.81-28.12-.59Z"/></g><path class="cls-13" d="M670.71,1413.28c-2.24-1.49-7.25-5.87-9.78-8.56-5.71-6.07-4.39-7.73,3.37-9.7,15-3.8,31.01,.68,45.81-5.04,19.4-7.49-11.52-21.71-18.04-26.35-8.09-5.76-41.53-34.85-29.33-46.92,4.67-4.62,17.63-1.19,23.5-.63,7.7,.73,13.37,3.04,18.98,8.61,6.36,6.32,11.44,14.33,16.8,21.45,6.53,8.67,13.72,16.48,19.23,25.85,3.62,6.16,8.5,13.48,7.65,21.13-.92,8.29-9.61,9.11-16.6,11.44-12,4.01-17.11,9.11-19.31,21.81-2.51,14.5-4.5,29.46-6.17,44.04-.63,5.53-.85,18.46-7.15,20.47-5.85,1.86-16.95-4.35-17.99-9.41-1.74-8.49,2.37-20.89,3.97-29.13,1.65-8.55,2.8-17.3,4.75-25.79,1.37-5.99,4.07-15.23-3.96-17.69-6.51-1.99-13.38,5.05-15.75,4.42Z"/><path class="cls-17" d="M727.53,1153.01c-13.35,1.48-13.84,16.56-5.53,24.44,4.42,4.19,9.28,4.27,14.05,.58,2.88-2.23,3.5-2,3.04-6.94-.23-2.42-1.37-6.24-2.39-8.61-2.06-4.79-9.22-13.33-9.16-9.47Z"/></g><path class="cls-18" d="M642.14,1280.08c-2.75,2.53-1.71,22.67-2.33,26.85-1.01,6.71,11,1.65,15.81,2.45-7.64-2.84-14.44-1.41-13.75,6.79,1.06,12.55,15.14,19.11,18.96,22.27,25.72,21.3,19.84,33.33,55.59,46.59-19.13-12.58-33.21,3.93-58.7,4.77-4.83,.16-11.9-1.49-15.95,1.17,1.11,.76,1.04,1.54,.66,2.37-.95,2.12-3.4,3.1-5.62,2.41-37.48-11.56,19.64,67.19,22.21,42.43,.61-5.85-2.59-17-5.58-19.98-1.34-1.33-1.24,3.66-3.23,3.72-5.72,.17-13.48-2.64-17.4-6.05,12.09,7.04,15.04-9.38,24.9-6.23,.46-1.38,4.23,7.74,4.28,6.23,17.7-3.58,21.4-3.8,33.85-5.84l-11.67-1.56c-4.09,2.89-1.95,7.71-14.4,78.21-.48,2.71,5.98,.57,5.45,3.5-.44,2.44-2.81,9.26-3.89,11.67-9.73,21.79,8.98,13.59,17.12,14.79,7.25,1.07,13.28,2.7,20.84,3.06,3.06,.14,15.93,1.26,15.74-4.83-.15-4.87-12.74-9.58-16.35-9.9-9.76-.87-21.29,8.69-31.13,8.56,7.54,3.1,36.83-1.27,28.66-10.1-3.75-4.05-8.74-4.13-9.48-12.55-.18-2.03,4.38,.54,4.56-2.64,1.95-34.24,1.26-63.05,7.27-79.52,14.65-2.4,23.84-5,23.84-5.11,30.78-9.71-25.72-61.12-32.85-84.17-2.54-5.91,.26-10.46-.95-12.34-3.65-5.69,2.15,.86,1.91-5.63-.78-21.01-20.23-26.46-.78-85.21,.31,6.25-8.18,12.26,10.12,18.68,15.76,5.53,26.43,9.12,30.35,5.45,5.04-4.72,2.16-17.8,.74-33.52-.55-6.11-3.06-12.75-2.67-18.84,.37-5.76,2.6-12.07,1.15-18.06-1.03-4.25-2.58,1.2-7,1.56-14.4,1.17-5.31-7.8-5.45-8.56-.27-1.54-1.45-1.91-2.75-1.77-1.59,.18-2.92-1.27-2.7-2.85,.31-2.26-.23-2.81-3.09-4.24-.17-.08-.37-.11-.54-.05-3.29,1.15-8.64,7.06-11.15,9.68-2.88,3.01-3.66,3.53,6.17,8.95,4.82,2.66,15.55,12.43,21.06,6.23,4.64-5.22,3.18-6.44-.78-5.06s-10.52,5.43-8.56,7.78c-3.3-4.88-8.5-6.79-14.01-8.17-3.38,4.66,7,5.06,13.86,15.56,.73,1.12,2.1,1.66,2.21,3,.23,2.79,2.04,6.28,1.83,10.23-.53,10.19-3.12,21.13-2.69,24.46,.47-9.23-14.82-15.51-16.95-9.18,20.81-7.11-21.37-20.43-23.93-26.57-.97-2.33-.71-14.13,1.98-15.1,2.04-.74,7.24,1.11,9.44,1.57,7.39,1.56,4.72-8.65,4.93-12.54,.16-3-1.62-3.42,1.17-4.28,6.11-1.88,0-7.62-.59-13.06-.28-2.61,4.13-11.66-3.15-16.51-17.57-11.72-23.58,13.17-.93,5.84,4.09-1.32,19.92-12.68-11.65-18.42-8.65-1.57-18.29,.74-18.09,.79-17.3,.79-17.8,33.47-11.01,44.03,8.17,12.7,11.87-10.92,13.12-11.72,1.99-1.27,2.31,.84,3.39,4.64,2.42,5.93,4.33,6.58-2.23,9.08-3.6,1.37-7.55,6.64-6.23,11.28,2.48,8.69,13.97,13.21,14.01,13.23-2.33,0-4.3,2-9.34-2.33-5.2-4.47-6.18-13.14-14.68-12.18-12.1,1.36-23.87,22.84-26.04,33.79,3.94,1.96,12.91,1,14.75,5.8-6.43-7.14-10.52-7.99-14.5-1.73-4.69,7.39-8.75,23.11-9.65,27.16-2,9.02-1.47,11.65,3.42,17.58,6.71,8.13,20.04,19.29,31.91,32.68,2.29,2.58,5.84,.94,7,4.67,5.45,17.51,10.51,16.34,13.33,16,3.82-.94,11.46-4.64,12.25-8.8-11.07-11.97-.2-8.33,4.5-10.04,1.82-.66,2.11-2.93,1.04-3-5.84-.39-11.74-3.22-16.34-3.5-12.84-.78-25.14-23.55-34.2-37.54-5.53-8.54-2.09,4.97,15.13-36.77-12.06,5.06-9.88,36.08-11.67,35.8"/></g><g><path class="cls-16" d="M1697.27,1086.62c.41-6.74,14.88-16.78,6.9-27.21-1.21-1.59-3.54-2.17-4.65-3.76-2.08-2.98,.02-19.81-4.51-18.6-.24,.06-9.97,27.89-22.76,15.56-1.18-1.14-4.28-6.98-6.25-6.27-4.61,1.68,4.83,10.32,2.63,17.94-.81,2.8-3.66,6.8-2.64,9.87,2.46,7.37,20.59,3.88,18.6,18.06-7.1,50.46-1.95,29.25,1.92,55.61,.51,3.5-1.69,16.29,1.19,18.63,4.57,3.7,4.01-13.09,4.06-15.09,.32-13.73,5.3-12.81,6.12-6.21,.72,5.77-1.74,17.85-.04,20.64,6.03,9.93,3.66-21.48,9.81-26.26,3.43-2.67,6.52,.25,6.77,3.91,.5,7.44-7.06,14.59-5.08,18.5,4.28,8.44,18.71-11.15,39.93,2.21,5.42,3.41,12.64,9.45,7.22,16.15-9.73,12.01-41.47-12.43-46.75,8.1-2.12,8.23,9.89,.58,13.06,.12,9.56-1.39,18.81,6.37,28.74,4.86,12.1-1.83,22.07-17.26,16.63-28.63-13.12-27.41-46.42,1.44-35.2-20.45,17.78-34.67-33-48.21-34.83-58.49-.34-1.93,1.37-2.72,1.47-4.98"/><path class="cls-20" d="M1716.28,1104c-20.17-10.76-21.87-14.28-22.41-19.04-1.09-9.68,21.03-14.9,.56-29.13-1.94-4.75,1.62-14.26-2.66-17.64-13.09,26.28-19.19,16.52-31.15,4.9-.92,4.91,4.23,13.74,3.56,17.79-1.68,10.08-7.54,19.55,6.72,24.65,10.43,3.73,10.08,3.92,4.48,27.45-3.44,14.43,1.82,24.39,6.72,36.41,6.16,15.12-6.72,19.04,6.16,19.61,11.34,.49-.98-18.53,4.56-23.8,3.99,8.82-3.44,28.84,8.75,23.47,7.3-3.21-4.08-29.69,9.14-28.16,.46,3.79-12.6,28.53-.21,27.35,3.37-.32,9.32-1.56,10.81-2.23,26.34-11.79,51.76,11.16,23.08,16.07-8.88,1.52-12.97-3.05-25.66-1.18-9.18,1.35-21.23,9.68-10.65,13.66,4.72,1.78,5.74-7.39,13.94-7.79,15.61-.76,20.23,6.62,30.18,2.05,13.77-6.34,19.55-19.47,6.64-28.98-6.59-4.85-26.33-7.28-37.53-2.8,14.56-11.76,18.97-39.85-5.04-52.65Z"/></g></g></g></g></svg>